<svg width="282" height="26" viewBox="0 0 282 26" fill="none" xmlns="http://www.w3.org/2000/svg">
<path d="M15.936 19.356L16.512 18.94C17.2373 18.5133 17.7493 18.3 18.048 18.3C18.7093 18.3 19.424 18.8973 20.192 20.092C20.6613 20.8387 20.896 21.436 20.896 21.884C20.896 22.332 20.7467 22.7053 20.448 23.004C20.1707 23.3027 19.84 23.5693 19.456 23.804C19.072 24.0387 18.6987 24.2627 18.336 24.476C17.9947 24.6893 17.28 24.9667 16.192 25.308C15.104 25.6493 14.048 25.82 13.024 25.82C12.0213 25.82 10.9973 25.692 9.952 25.436C8.928 25.1587 7.86133 24.7107 6.752 24.092C5.664 23.452 4.68267 22.684 3.808 21.788C2.93333 20.8707 2.208 19.708 1.632 18.3C1.07733 16.8707 0.8 15.324 0.8 13.66C0.8 11.996 1.07733 10.492 1.632 9.148C2.18667 7.78267 2.89067 6.66267 3.744 5.788C4.61867 4.892 5.61067 4.14533 6.72 3.548C8.81067 2.396 10.912 1.82 13.024 1.82C14.0267 1.82 15.04 1.98 16.064 2.3C17.1093 2.59867 17.8987 2.908 18.432 3.228L19.2 3.676C19.584 3.91067 19.8827 4.10267 20.096 4.252C20.6507 4.7 20.928 5.212 20.928 5.788C20.928 6.34267 20.704 6.92933 20.256 7.548C19.424 8.7 18.6773 9.276 18.016 9.276C17.632 9.276 17.088 9.04133 16.384 8.572C15.488 7.84667 14.2933 7.484 12.8 7.484C11.4133 7.484 10.048 7.964 8.704 8.924C8.064 9.39333 7.53067 10.0547 7.104 10.908C6.67733 11.7613 6.464 12.732 6.464 13.82C6.464 14.8867 6.67733 15.8467 7.104 16.7C7.53067 17.5533 8.07467 18.2253 8.736 18.716C10.0373 19.6547 11.392 20.124 12.8 20.124C13.4613 20.124 14.08 20.0387 14.656 19.868C15.2533 19.6973 15.68 19.5267 15.936 19.356ZM22.5188 17.084C22.5188 14.524 23.4148 12.412 25.2068 10.748C26.9988 9.084 29.0468 8.252 31.3508 8.252C33.6548 8.252 35.6921 9.084 37.4628 10.748C39.2334 12.3907 40.1188 14.492 40.1188 17.052C40.1188 18.8227 39.6601 20.4013 38.7428 21.788C37.8254 23.1533 36.7054 24.1667 35.3828 24.828C34.0814 25.468 32.7268 25.788 31.3188 25.788C29.9108 25.788 28.5454 25.4467 27.2228 24.764C25.9001 24.06 24.7801 23.036 23.8628 21.692C22.9668 20.3267 22.5188 18.7907 22.5188 17.084ZM29.2068 19.388C29.8894 19.9 30.5828 20.156 31.2868 20.156C31.9908 20.156 32.6948 19.8893 33.3988 19.356C34.1028 18.8227 34.4548 18.0333 34.4548 16.988C34.4548 15.9427 34.1241 15.164 33.4628 14.652C32.8014 14.14 32.0868 13.884 31.3188 13.884C30.5508 13.884 29.8361 14.1507 29.1748 14.684C28.5134 15.2173 28.1828 16.0067 28.1828 17.052C28.1828 18.076 28.5241 18.8547 29.2068 19.388ZM53.4823 1.628C53.6529 1.308 53.9409 1.084 54.3463 0.955999C54.7516 0.827998 55.2849 0.763998 55.9463 0.763998C56.6289 0.763998 57.1729 0.827998 57.5783 0.955999C57.9836 1.084 58.2609 1.308 58.4103 1.628C58.5809 1.948 58.6769 2.236 58.6983 2.492C58.7409 2.72667 58.7623 3.08933 58.7623 3.58V22.684C58.7623 23.1747 58.7409 23.548 58.6983 23.804C58.6769 24.0387 58.5809 24.3053 58.4103 24.604C58.0903 25.18 57.1836 25.468 55.6903 25.468C54.2183 25.468 53.3969 24.9453 53.2263 23.9C52.3303 24.924 51.0823 25.436 49.4823 25.436C47.5623 25.436 45.8129 24.604 44.2343 22.94C42.6556 21.2547 41.8663 19.3027 41.8663 17.084C41.8663 14.844 42.6556 12.8813 44.2343 11.196C45.8343 9.51067 47.5836 8.668 49.4823 8.668C51.0609 8.668 52.2876 9.20133 53.1623 10.268V3.548C53.1623 3.05733 53.1729 2.69467 53.1943 2.46C53.2369 2.204 53.3329 1.92666 53.4823 1.628ZM48.2983 19.004C48.8529 19.58 49.5249 19.868 50.3142 19.868C51.1036 19.868 51.7543 19.58 52.2663 19.004C52.7996 18.428 53.0663 17.7987 53.0663 17.116C53.0663 16.412 52.8103 15.7613 52.2983 15.164C51.8076 14.5667 51.1356 14.268 50.2823 14.268C49.4289 14.268 48.7463 14.5667 48.2343 15.164C47.7223 15.74 47.4663 16.38 47.4663 17.084C47.4663 17.788 47.7436 18.428 48.2983 19.004ZM77.5673 15.068C77.5673 16.3693 77.2366 17.34 76.5753 17.98C75.9353 18.5987 75.2206 18.908 74.4313 18.908H66.8473C66.8473 19.5053 67.1993 20.0067 67.9033 20.412C68.6073 20.8173 69.3113 21.02 70.0153 21.02C71.2526 21.02 72.2233 20.892 72.9273 20.636L73.2793 20.508C73.7913 20.2733 74.2179 20.156 74.5593 20.156C75.2419 20.156 75.8286 20.636 76.3193 21.596C76.5966 22.172 76.7353 22.6627 76.7353 23.068C76.7353 24.9667 74.4633 25.916 69.9193 25.916C68.3406 25.916 66.9326 25.6493 65.6953 25.116C64.4793 24.5613 63.5299 23.836 62.8473 22.94C61.5033 21.212 60.8313 19.2813 60.8313 17.148C60.8313 14.46 61.6953 12.316 63.4233 10.716C65.1726 9.09467 67.3486 8.284 69.9513 8.284C72.9166 8.284 75.0926 9.32933 76.4792 11.42C77.2046 12.5293 77.5673 13.7453 77.5673 15.068ZM70.8153 15.996C71.6259 15.996 72.0313 15.6547 72.0313 14.972C72.0313 14.4813 71.8393 14.0867 71.4553 13.788C71.0926 13.4893 70.5593 13.34 69.8553 13.34C69.1726 13.34 68.4899 13.628 67.8073 14.204C67.1246 14.7587 66.7833 15.356 66.7833 15.996H70.8153ZM106.373 2.492C107.418 3.21733 107.941 3.92133 107.941 4.604C107.941 5.00933 107.695 5.57467 107.205 6.3L100.293 16.636V22.748C100.293 23.2387 100.271 23.612 100.229 23.868C100.207 24.1027 100.111 24.38 99.9408 24.7C99.7701 25.02 99.4821 25.244 99.0768 25.372C98.6714 25.5 98.1274 25.564 97.4448 25.564C96.7621 25.564 96.2181 25.5 95.8128 25.372C95.4074 25.244 95.1194 25.02 94.9488 24.7C94.7781 24.3587 94.6714 24.0707 94.6288 23.836C94.6074 23.58 94.5968 23.196 94.5968 22.684V16.636L87.6848 6.3C87.1941 5.57467 86.9488 5.00933 86.9488 4.604C86.9488 3.92133 87.4181 3.27066 88.3568 2.652C89.2954 2.012 89.9674 1.692 90.3728 1.692C90.7781 1.692 91.0981 1.77733 91.3328 1.948C91.6954 2.18267 92.0794 2.62 92.4848 3.26L97.4448 11.196L102.405 3.26C102.81 2.62 103.162 2.204 103.461 2.012C103.759 1.79867 104.101 1.692 104.485 1.692C104.89 1.692 105.519 1.95867 106.373 2.492ZM105.363 17.084C105.363 14.524 106.259 12.412 108.051 10.748C109.843 9.084 111.891 8.252 114.195 8.252C116.499 8.252 118.536 9.084 120.307 10.748C122.077 12.3907 122.963 14.492 122.963 17.052C122.963 18.8227 122.504 20.4013 121.587 21.788C120.669 23.1533 119.549 24.1667 118.227 24.828C116.925 25.468 115.571 25.788 114.163 25.788C112.755 25.788 111.389 25.4467 110.067 24.764C108.744 24.06 107.624 23.036 106.707 21.692C105.811 20.3267 105.363 18.7907 105.363 17.084ZM112.051 19.388C112.733 19.9 113.427 20.156 114.131 20.156C114.835 20.156 115.539 19.8893 116.243 19.356C116.947 18.8227 117.299 18.0333 117.299 16.988C117.299 15.9427 116.968 15.164 116.307 14.652C115.645 14.14 114.931 13.884 114.163 13.884C113.395 13.884 112.68 14.1507 112.019 14.684C111.357 15.2173 111.027 16.0067 111.027 17.052C111.027 18.076 111.368 18.8547 112.051 19.388ZM132.518 25.436C130.363 25.436 128.571 24.6253 127.142 23.004C125.734 21.3613 125.03 19.3667 125.03 17.02V11.42C125.03 10.908 125.041 10.5347 125.062 10.3C125.105 10.0653 125.201 9.788 125.35 9.468C125.649 8.892 126.481 8.604 127.846 8.604C129.339 8.604 130.214 9.00933 130.47 9.82C130.598 10.1613 130.662 10.7053 130.662 11.452V17.052C130.662 17.9267 130.907 18.6093 131.398 19.1C131.91 19.5907 132.582 19.836 133.414 19.836C134.267 19.836 134.95 19.58 135.462 19.068C135.995 18.556 136.262 17.884 136.262 17.052V11.388C136.262 10.8973 136.273 10.5347 136.294 10.3C136.337 10.044 136.443 9.756 136.614 9.436C136.891 8.88133 137.713 8.604 139.078 8.604C140.422 8.604 141.243 8.892 141.542 9.468C141.691 9.788 141.777 10.076 141.798 10.332C141.841 10.5667 141.862 10.9293 141.862 11.42V22.748C141.862 23.2173 141.841 23.58 141.798 23.836C141.777 24.0707 141.681 24.3373 141.51 24.636C141.19 25.1907 140.369 25.468 139.046 25.468C137.745 25.468 136.945 25.212 136.646 24.7C136.433 24.3373 136.326 23.9 136.326 23.388C136.241 23.5373 136.049 23.7507 135.75 24.028C135.451 24.3053 135.163 24.54 134.886 24.732C134.161 25.2013 133.371 25.436 132.518 25.436ZM155.892 8.828C156.298 8.956 156.628 9.18 156.884 9.5C157.162 9.79867 157.3 10.2893 157.3 10.972C157.3 11.6547 157.098 12.4013 156.692 13.212C156.287 14.0227 155.7 14.428 154.932 14.428C154.548 14.428 154.175 14.3427 153.812 14.172C153.471 14.0013 153.012 13.916 152.436 13.916C151.86 13.916 151.316 14.1187 150.804 14.524C150.314 14.9293 150.068 15.42 150.068 15.996V22.716C150.068 23.2067 150.047 23.58 150.004 23.836C149.983 24.0707 149.887 24.348 149.716 24.668C149.396 25.2227 148.564 25.5 147.22 25.5C146.196 25.5 145.46 25.3187 145.012 24.956C144.671 24.6573 144.479 24.1987 144.436 23.58C144.436 23.3667 144.436 23.0573 144.436 22.652V11.42C144.436 10.9293 144.447 10.5667 144.468 10.332C144.511 10.076 144.607 9.79867 144.756 9.5C145.055 8.924 145.887 8.636 147.252 8.636C148.532 8.636 149.332 8.88133 149.652 9.372C149.887 9.71333 150.004 10.0653 150.004 10.428C150.111 10.2787 150.26 10.0973 150.452 9.884C150.666 9.67067 151.103 9.38267 151.764 9.02C152.426 8.65733 153.002 8.476 153.492 8.476C154.004 8.476 154.431 8.508 154.772 8.572C155.114 8.61467 155.487 8.7 155.892 8.828ZM170.003 2.012L175.923 2.044C179.016 2.044 181.736 3.164 184.083 5.404C186.43 7.62267 187.603 10.364 187.603 13.628C187.603 16.8707 186.451 19.6547 184.147 21.98C181.864 24.3053 179.091 25.468 175.827 25.468H169.971C168.67 25.468 167.859 25.2013 167.539 24.668C167.283 24.22 167.155 23.5373 167.155 22.62V4.828C167.155 4.316 167.166 3.94267 167.187 3.708C167.23 3.47333 167.336 3.196 167.507 2.876C167.806 2.3 168.638 2.012 170.003 2.012ZM175.923 19.804C177.459 19.804 178.846 19.2387 180.083 18.108C181.32 16.956 181.939 15.516 181.939 13.788C181.939 12.06 181.331 10.62 180.115 9.468C178.92 8.29467 177.512 7.708 175.891 7.708H172.819V19.804H175.923ZM201.142 8.828C201.548 8.956 201.878 9.18 202.134 9.5C202.412 9.79867 202.55 10.2893 202.55 10.972C202.55 11.6547 202.348 12.4013 201.942 13.212C201.537 14.0227 200.95 14.428 200.182 14.428C199.798 14.428 199.425 14.3427 199.062 14.172C198.721 14.0013 198.262 13.916 197.686 13.916C197.11 13.916 196.566 14.1187 196.054 14.524C195.564 14.9293 195.318 15.42 195.318 15.996V22.716C195.318 23.2067 195.297 23.58 195.254 23.836C195.233 24.0707 195.137 24.348 194.966 24.668C194.646 25.2227 193.814 25.5 192.47 25.5C191.446 25.5 190.71 25.3187 190.262 24.956C189.921 24.6573 189.729 24.1987 189.686 23.58C189.686 23.3667 189.686 23.0573 189.686 22.652V11.42C189.686 10.9293 189.697 10.5667 189.718 10.332C189.761 10.076 189.857 9.79867 190.006 9.5C190.305 8.924 191.137 8.636 192.502 8.636C193.782 8.636 194.582 8.88133 194.902 9.372C195.137 9.71333 195.254 10.0653 195.254 10.428C195.361 10.2787 195.51 10.0973 195.702 9.884C195.916 9.67067 196.353 9.38267 197.014 9.02C197.676 8.65733 198.252 8.476 198.742 8.476C199.254 8.476 199.681 8.508 200.022 8.572C200.364 8.61467 200.737 8.7 201.142 8.828ZM219.599 15.068C219.599 16.3693 219.268 17.34 218.607 17.98C217.967 18.5987 217.252 18.908 216.463 18.908H208.879C208.879 19.5053 209.231 20.0067 209.935 20.412C210.639 20.8173 211.343 21.02 212.047 21.02C213.284 21.02 214.255 20.892 214.959 20.636L215.311 20.508C215.823 20.2733 216.249 20.156 216.591 20.156C217.273 20.156 217.86 20.636 218.351 21.596C218.628 22.172 218.767 22.6627 218.767 23.068C218.767 24.9667 216.495 25.916 211.951 25.916C210.372 25.916 208.964 25.6493 207.727 25.116C206.511 24.5613 205.561 23.836 204.879 22.94C203.535 21.212 202.863 19.2813 202.863 17.148C202.863 14.46 203.727 12.316 205.455 10.716C207.204 9.09467 209.38 8.284 211.983 8.284C214.948 8.284 217.124 9.32933 218.51 11.42C219.236 12.5293 219.599 13.7453 219.599 15.068ZM212.847 15.996C213.657 15.996 214.063 15.6547 214.063 14.972C214.063 14.4813 213.871 14.0867 213.487 13.788C213.124 13.4893 212.591 13.34 211.887 13.34C211.204 13.34 210.521 13.628 209.839 14.204C209.156 14.7587 208.815 15.356 208.815 15.996H212.847ZM232.63 10.428C232.758 9.23333 233.601 8.636 235.158 8.636C235.99 8.636 236.609 8.7 237.014 8.828C237.42 8.956 237.697 9.18 237.846 9.5C238.017 9.82 238.113 10.108 238.134 10.364C238.177 10.5987 238.198 10.9613 238.198 11.452V22.652C238.198 23.1427 238.177 23.516 238.134 23.772C238.113 24.0067 238.028 24.284 237.878 24.604C237.58 25.1587 236.844 25.436 235.67 25.436C234.518 25.436 233.74 25.2973 233.334 25.02C232.95 24.7213 232.726 24.2947 232.662 23.74C231.873 24.8707 230.55 25.436 228.694 25.436C226.86 25.436 225.153 24.5933 223.574 22.908C221.996 21.2227 221.206 19.2707 221.206 17.052C221.206 14.812 221.996 12.86 223.574 11.196C225.174 9.51067 226.924 8.668 228.822 8.668C229.548 8.668 230.209 8.796 230.806 9.052C231.404 9.308 231.82 9.55333 232.054 9.788C232.289 10.0013 232.481 10.2147 232.63 10.428ZM226.806 17.084C226.806 17.788 227.084 18.428 227.638 19.004C228.193 19.5587 228.865 19.836 229.654 19.836C230.444 19.836 231.094 19.548 231.606 18.972C232.14 18.396 232.406 17.7667 232.406 17.084C232.406 16.38 232.15 15.7293 231.638 15.132C231.148 14.5347 230.476 14.236 229.622 14.236C228.79 14.236 228.108 14.5347 227.574 15.132C227.062 15.7293 226.806 16.38 226.806 17.084ZM246.253 10.876C247.255 9.36133 248.461 8.604 249.869 8.604C252.045 8.604 253.666 9.532 254.733 11.388C254.967 11.068 255.245 10.7373 255.565 10.396C255.906 10.0333 256.439 9.64933 257.165 9.244C257.89 8.81733 258.637 8.604 259.405 8.604C261.111 8.604 262.541 9.26533 263.693 10.588C264.845 11.8893 265.421 14.0547 265.421 17.084V22.684C265.421 23.1747 265.399 23.548 265.357 23.804C265.335 24.0387 265.239 24.316 265.069 24.636C264.791 25.212 263.97 25.5 262.605 25.5C261.261 25.5 260.439 25.2013 260.141 24.604C259.991 24.284 259.895 24.0067 259.853 23.772C259.831 23.516 259.821 23.1427 259.821 22.652V17.052C259.821 15.196 259.159 14.268 257.837 14.268C257.09 14.268 256.578 14.5133 256.301 15.004C256.045 15.4947 255.917 16.188 255.917 17.084V22.684C255.917 23.196 255.895 23.5693 255.853 23.804C255.831 24.0387 255.735 24.316 255.565 24.636C255.266 25.212 254.434 25.5 253.069 25.5C251.725 25.5 250.903 25.2013 250.605 24.604C250.455 24.284 250.359 24.0067 250.317 23.772C250.295 23.516 250.285 23.1427 250.285 22.652V17.052C250.285 15.196 249.623 14.268 248.301 14.268C247.021 14.268 246.381 15.196 246.381 17.052V22.716C246.381 23.2067 246.359 23.58 246.317 23.836C246.295 24.0707 246.199 24.348 246.029 24.668C245.709 25.2227 244.877 25.5 243.533 25.5C242.189 25.5 241.367 25.212 241.069 24.636C240.919 24.316 240.823 24.0387 240.781 23.804C240.759 23.5693 240.749 23.196 240.749 22.684V11.42C240.749 10.9293 240.759 10.5667 240.781 10.332C240.823 10.076 240.93 9.79867 241.101 9.5C241.421 8.924 242.178 8.636 243.373 8.636C244.567 8.636 245.346 8.828 245.709 9.212C246.071 9.596 246.253 10.1507 246.253 10.876ZM268.096 23.996C267.69 23.74 267.488 23.3347 267.488 22.78C267.488 22.2253 267.893 21.3827 268.704 20.252C268.938 19.8893 269.312 19.708 269.824 19.708C270.357 19.708 271.072 19.9747 271.968 20.508C272.864 21.02 273.674 21.276 274.4 21.276C275.701 21.276 276.352 21.02 276.352 20.508C276.352 20.1027 275.637 19.804 274.208 19.612C272.864 19.42 271.53 18.9187 270.208 18.108C269.589 17.724 269.077 17.1267 268.672 16.316C268.266 15.484 268.064 14.5027 268.064 13.372C268.064 10.0013 270.378 8.316 275.008 8.316C276.522 8.316 278.08 8.67867 279.68 9.404C280.426 9.74533 280.8 10.172 280.8 10.684C280.8 11.196 280.565 11.8253 280.096 12.572C279.626 13.3187 279.146 13.692 278.656 13.692C278.4 13.692 277.92 13.532 277.216 13.212C276.533 12.892 275.786 12.732 274.976 12.732C273.717 12.732 273.088 12.9667 273.088 13.436C273.088 14.076 273.813 14.492 275.264 14.684C276.672 14.8333 278.037 15.2387 279.36 15.9C279.978 16.1987 280.49 16.7213 280.896 17.468C281.322 18.1933 281.536 19.1107 281.536 20.22C281.536 21.3293 281.322 22.2787 280.896 23.068C280.49 23.836 279.914 24.412 279.168 24.796C277.802 25.4573 276.085 25.788 274.016 25.788C271.968 25.788 269.994 25.1907 268.096 23.996Z" fill="#BC3860"/>
</svg>
