<svg width="143" height="143" viewBox="0 0 143 143" fill="none" xmlns="http://www.w3.org/2000/svg">
    <rect x="0.0612793" y="0.0611572" width="142.224" height="142.224" rx="28.4448" fill="#8D608C"/>
    <rect x="35.6179" y="40.3574" width="37.9264" height="37.9264" rx="18.9632" fill="white"/>
    <rect x="68.804" y="40.3573" width="37.9264" height="37.9264" rx="18.9632" fill="white"/>
    <rect x="47.4707" y="59.3204" width="14.2224" height="14.2224" rx="7.11119" fill="#071116"/>
    <rect x="56.9514" y="61.6913" width="2.3704" height="2.3704" rx="1.1852" fill="white"/>
    <rect x="80.6553" y="59.3208" width="14.2224" height="14.2224" rx="7.11119" fill="#071116"/>
    <rect x="90.1372" y="61.6908" width="2.3704" height="2.3704" rx="1.1852" fill="white"/>
    <path d="M56.9509 90.915C56.9509 89.1756 58.361 87.7655 60.1004 87.7655H82.2264C83.9768 87.7655 85.3957 89.1844 85.3957 90.9348C85.3957 92.0987 84.757 93.1775 83.7179 93.702C74.1958 98.5088 68.1706 98.3525 58.6575 93.6886C57.604 93.1721 56.9509 92.0883 56.9509 90.915Z" fill="#FFAFC7"/>
    <path d="M72.9571 94.7721C73.2293 94.3945 73.6282 94.1273 74.081 94.0194L84.1322 91.6231C84.7413 91.4778 85.3527 91.8539 85.4979 92.463C85.6003 92.8925 85.4456 93.3445 85.0902 93.6066C81.8982 95.9611 78.0857 97.451 74.208 97.5063C72.7875 97.5266 72.1263 95.9245 72.9571 94.7721Z" fill="#F74F9E"/>
</svg>
