<svg width="93" height="93" viewBox="0 0 93 93" fill="none" xmlns="http://www.w3.org/2000/svg">
<rect x="0.934082" y="0.501953" width="91.751" height="91.751" rx="18.3502" fill="#BC3860"/>
<rect x="23.8716" y="26.498" width="24.4669" height="24.4669" rx="12.2335" fill="white"/>
<rect x="45.2803" y="26.498" width="24.4669" height="24.4669" rx="12.2335" fill="white"/>
<rect x="31.5176" y="38.7314" width="9.1751" height="9.1751" rx="4.58755" fill="#071116"/>
<rect x="37.6343" y="40.2606" width="1.52918" height="1.52918" rx="0.764591" fill="white"/>
<rect x="52.9263" y="38.7314" width="9.1751" height="9.1751" rx="4.58755" fill="#071116"/>
<rect x="59.043" y="40.2606" width="1.52918" height="1.52918" rx="0.764591" fill="white"/>
<path d="M37.6343 59.1134C37.6343 57.9913 38.5439 57.0817 39.6661 57.0817H53.9399C55.0691 57.0817 55.9845 57.997 55.9845 59.1262C55.9845 59.8771 55.5724 60.573 54.9021 60.9114C48.7592 64.0124 44.8723 63.9115 38.7352 60.9027C38.0556 60.5695 37.6343 59.8704 37.6343 59.1134Z" fill="#FFAFC7"/>
<path d="M47.9603 61.6016C48.1359 61.358 48.3933 61.1857 48.6854 61.116L55.1696 59.5701C55.5625 59.4765 55.957 59.719 56.0506 60.112C56.1167 60.3891 56.0168 60.6807 55.7876 60.8498C53.7284 62.3687 51.2689 63.3298 48.7673 63.3655C47.8509 63.3786 47.4244 62.3451 47.9603 61.6016Z" fill="#F74F9E"/>
</svg>
