<svg width="28" height="29" viewBox="0 0 28 29" fill="none" xmlns="http://www.w3.org/2000/svg">
<path d="M2.3335 8.06905L7.4785 2.92405C7.69556 2.70569 7.9537 2.53245 8.23803 2.41431C8.52236 2.29617 8.82727 2.23547 9.13516 2.23572H18.8652C19.1731 2.23547 19.478 2.29617 19.7623 2.41431C20.0466 2.53245 20.3048 2.70569 20.5218 2.92405L25.6668 8.06905M2.3335 8.06905H25.6668M2.3335 8.06905V11.5691C2.3335 12.1879 2.57933 12.7814 3.01691 13.219C3.4545 13.6566 4.04799 13.9024 4.66683 13.9024M25.6668 8.06905V11.5691C25.6668 12.1879 25.421 12.7814 24.9834 13.219C24.5458 13.6566 23.9523 13.9024 23.3335 13.9024M4.66683 13.9024V23.2357C4.66683 23.8546 4.91266 24.448 5.35025 24.8856C5.78783 25.3232 6.38132 25.5691 7.00016 25.5691H21.0002C21.619 25.5691 22.2125 25.3232 22.6501 24.8856C23.0877 24.448 23.3335 23.8546 23.3335 23.2357V13.9024M4.66683 13.9024C5.34847 13.8649 5.99948 13.6069 6.52183 13.1674C6.66104 13.0668 6.82841 13.0126 7.00016 13.0126C7.17191 13.0126 7.33929 13.0668 7.4785 13.1674C8.00085 13.6069 8.65185 13.8649 9.3335 13.9024C10.0151 13.8649 10.6661 13.6069 11.1885 13.1674C11.3277 13.0668 11.4951 13.0126 11.6668 13.0126C11.8386 13.0126 12.006 13.0668 12.1452 13.1674C12.6675 13.6069 13.3185 13.8649 14.0002 13.9024C14.6818 13.8649 15.3328 13.6069 15.8552 13.1674C15.9944 13.0668 16.1617 13.0126 16.3335 13.0126C16.5052 13.0126 16.6726 13.0668 16.8118 13.1674C17.3342 13.6069 17.9852 13.8649 18.6668 13.9024C19.3485 13.8649 19.9995 13.6069 20.5218 13.1674C20.661 13.0668 20.8284 13.0126 21.0002 13.0126C21.1719 13.0126 21.3393 13.0668 21.4785 13.1674C22.0008 13.6069 22.6519 13.8649 23.3335 13.9024M17.5002 25.5691V20.9024C17.5002 20.2835 17.2543 19.6901 16.8167 19.2525C16.3792 18.8149 15.7857 18.5691 15.1668 18.5691H12.8335C12.2147 18.5691 11.6212 18.8149 11.1836 19.2525C10.746 19.6901 10.5002 20.2835 10.5002 20.9024V25.5691" stroke="#5A5A63" stroke-width="2" stroke-linecap="round" stroke-linejoin="round"/>
</svg>
