<svg width="28" height="29" viewBox="0 0 28 29" fill="none" xmlns="http://www.w3.org/2000/svg">
<path d="M17.5 25.4025V16.0692C17.5 15.7598 17.3771 15.463 17.1583 15.2442C16.9395 15.0254 16.6428 14.9025 16.3333 14.9025H11.6667C11.3572 14.9025 11.0605 15.0254 10.8417 15.2442C10.6229 15.463 10.5 15.7598 10.5 16.0692V25.4025M3.5 12.5692C3.49992 12.2298 3.57389 11.8944 3.71675 11.5865C3.85962 11.2786 4.06793 11.0056 4.32717 10.7865L12.4938 3.78768C12.915 3.43174 13.4486 3.23645 14 3.23645C14.5514 3.23645 15.085 3.43174 15.5062 3.78768L23.6728 10.7865C23.9321 11.0056 24.1404 11.2786 24.2832 11.5865C24.4261 11.8944 24.5001 12.2298 24.5 12.5692V23.0692C24.5 23.688 24.2542 24.2815 23.8166 24.7191C23.379 25.1567 22.7855 25.4025 22.1667 25.4025H5.83333C5.21449 25.4025 4.621 25.1567 4.18342 24.7191C3.74583 24.2815 3.5 23.688 3.5 23.0692V12.5692Z" stroke="#071116" stroke-width="2" stroke-linecap="round" stroke-linejoin="round"/>
</svg>
