<svg width="28" height="28" viewBox="0 0 28 28" fill="none" xmlns="http://www.w3.org/2000/svg">
<path d="M14.2567 1.33325H13.7433C13.1245 1.33325 12.531 1.57908 12.0934 2.01667C11.6558 2.45425 11.41 3.04775 11.41 3.66659V3.87659C11.4096 4.28577 11.3016 4.68764 11.0968 5.0419C10.892 5.39615 10.5977 5.69033 10.2433 5.89492L9.74167 6.18659C9.38696 6.39138 8.98459 6.49919 8.575 6.49919C8.16542 6.49919 7.76305 6.39138 7.40834 6.18659L7.23334 6.09325C6.69791 5.78439 6.06181 5.7006 5.46467 5.86028C4.86753 6.01995 4.35815 6.41004 4.04834 6.94492L3.79167 7.38825C3.48281 7.92368 3.39902 8.55978 3.55869 9.15692C3.71837 9.75406 4.10846 10.2634 4.64334 10.5733L4.81834 10.6899C5.17099 10.8935 5.46422 11.1859 5.66889 11.5379C5.87356 11.8899 5.98254 12.2894 5.985 12.6966V13.2916C5.98663 13.7027 5.87959 14.107 5.67472 14.4635C5.46985 14.82 5.17441 15.116 4.81834 15.3216L4.64334 15.4266C4.10846 15.7364 3.71837 16.2458 3.55869 16.8429C3.39902 17.4401 3.48281 18.0762 3.79167 18.6116L4.04834 19.0549C4.35815 19.5898 4.86753 19.9799 5.46467 20.1396C6.06181 20.2992 6.69791 20.2154 7.23334 19.9066L7.40834 19.8133C7.76305 19.6085 8.16542 19.5006 8.575 19.5006C8.98459 19.5006 9.38696 19.6085 9.74167 19.8133L10.2433 20.1049C10.5977 20.3095 10.892 20.6037 11.0968 20.9579C11.3016 21.3122 11.4096 21.7141 11.41 22.1233V22.3333C11.41 22.9521 11.6558 23.5456 12.0934 23.9832C12.531 24.4208 13.1245 24.6666 13.7433 24.6666H14.2567C14.8755 24.6666 15.469 24.4208 15.9066 23.9832C16.3442 23.5456 16.59 22.9521 16.59 22.3333V22.1233C16.5904 21.7141 16.6984 21.3122 16.9032 20.9579C17.108 20.6037 17.4023 20.3095 17.7567 20.1049L18.2583 19.8133C18.613 19.6085 19.0154 19.5006 19.425 19.5006C19.8346 19.5006 20.237 19.6085 20.5917 19.8133L20.7667 19.9066C21.3021 20.2154 21.9382 20.2992 22.5353 20.1396C23.1325 19.9799 23.6419 19.5898 23.9517 19.0549L24.2083 18.5999C24.5172 18.0645 24.601 17.4284 24.4413 16.8313C24.2816 16.2341 23.8915 15.7247 23.3567 15.4149L23.1817 15.3216C22.8256 15.116 22.5302 14.82 22.3253 14.4635C22.1204 14.107 22.0134 13.7027 22.015 13.2916V12.7083C22.0134 12.2971 22.1204 11.8928 22.3253 11.5363C22.5302 11.1798 22.8256 10.8838 23.1817 10.6783L23.3567 10.5733C23.8915 10.2634 24.2816 9.75406 24.4413 9.15692C24.601 8.55978 24.5172 7.92368 24.2083 7.38825L23.9517 6.94492C23.6419 6.41004 23.1325 6.01995 22.5353 5.86028C21.9382 5.7006 21.3021 5.78439 20.7667 6.09325L20.5917 6.18659C20.237 6.39138 19.8346 6.49919 19.425 6.49919C19.0154 6.49919 18.613 6.39138 18.2583 6.18659L17.7567 5.89492C17.4023 5.69033 17.108 5.39615 16.9032 5.0419C16.6984 4.68764 16.5904 4.28577 16.59 3.87659V3.66659C16.59 3.04775 16.3442 2.45425 15.9066 2.01667C15.469 1.57908 14.8755 1.33325 14.2567 1.33325Z" stroke="#5A5A63" stroke-width="2" stroke-linecap="round" stroke-linejoin="round"/>
<path d="M14 16.4999C15.933 16.4999 17.5 14.9329 17.5 12.9999C17.5 11.0669 15.933 9.49992 14 9.49992C12.067 9.49992 10.5 11.0669 10.5 12.9999C10.5 14.9329 12.067 16.4999 14 16.4999Z" stroke="#5A5A63" stroke-width="2" stroke-linecap="round" stroke-linejoin="round"/>
</svg>
