<svg width="194" height="193" viewBox="0 0 194 193" fill="none" xmlns="http://www.w3.org/2000/svg">
<rect x="0.826172" y="66.77" width="142.224" height="142.224" rx="28.4448" transform="rotate(-28 0.826172 66.77)" fill="#8D608C"/>
<rect x="51.1387" y="85.6566" width="37.9264" height="37.9264" rx="18.9632" transform="rotate(-28 51.1387 85.6566)" fill="white"/>
<rect x="80.4395" y="70.0765" width="37.9264" height="37.9264" rx="18.9632" transform="rotate(-28 80.4395 70.0765)" fill="white"/>
<rect x="70.5059" y="96.8354" width="14.2224" height="14.2224" rx="7.11119" transform="rotate(-28 70.5059 96.8354)" fill="#071116"/>
<rect x="79.9902" y="94.4778" width="2.3704" height="2.3704" rx="1.1852" transform="rotate(-28 79.9902 94.4778)" fill="white"/>
<rect x="99.8066" y="81.2566" width="14.2224" height="14.2224" rx="7.11119" transform="rotate(-28 99.8066 81.2566)" fill="#071116"/>
<rect x="109.291" y="78.8976" width="2.3704" height="2.3704" rx="1.1852" transform="rotate(-28 109.291 78.8976)" fill="white"/>
<path d="M93.7091 120.281C92.8925 118.745 93.4755 116.838 95.0113 116.022L114.547 105.634C116.093 104.812 118.012 105.399 118.834 106.945C119.38 107.972 119.323 109.225 118.651 110.176C112.5 118.89 107.107 121.581 96.518 121.929C95.3453 121.967 94.2599 121.317 93.7091 120.281Z" fill="#FFAFC7"/>
<path d="M109.653 116.172C109.717 115.711 109.943 115.288 110.292 114.98L118.042 108.146C118.512 107.731 119.228 107.776 119.642 108.246C119.934 108.577 120.01 109.049 119.819 109.447C118.106 113.025 115.439 116.13 112.042 117.999C110.797 118.684 109.461 117.58 109.653 116.172Z" fill="#F74F9E"/>
</svg>
